REM DIRINDEX 1\2,1\3,1\4,1\5\6,1\5\7,1\8
REM DIRNAME folder01,folder02,folder03,folder04,folder05,folder06,folder07,folder08
TITLE ""
FILE "055 Åy055ÅzUnit3 (0625 catastrophe_0636 decisive).mp3" MP3
  TRACK 01 AUDIO
    TITLE "0:"
    INDEX 01 00:00:00
  TRACK 02 AUDIO
    TITLE "2:cjc115_2104"
    INDEX 01 00:00:03
  TRACK 03 AUDIO
    TITLE "0:"
    INDEX 01 00:01:34
  TRACK 04 AUDIO
    TITLE "3:cjc115_2105"
    INDEX 01 00:01:42
  TRACK 05 AUDIO
    TITLE "0:"
    INDEX 01 00:03:53
  TRACK 06 AUDIO
    TITLE "4:cjc115_2106"
    INDEX 01 00:03:63
  TRACK 07 AUDIO
    TITLE "0:"
    INDEX 01 00:09:38
  TRACK 08 AUDIO
    TITLE "2:cjc115_2107"
    INDEX 01 00:10:41
  TRACK 09 AUDIO
    TITLE "0:"
    INDEX 01 00:11:48
  TRACK 10 AUDIO
    TITLE "3:cjc115_2108"
    INDEX 01 00:11:50
  TRACK 11 AUDIO
    TITLE "0:"
    INDEX 01 00:14:39
  TRACK 12 AUDIO
    TITLE "4:cjc115_2109"
    INDEX 01 00:14:47
  TRACK 13 AUDIO
    TITLE "0:"
    INDEX 01 00:19:34
  TRACK 14 AUDIO
    TITLE "2:cjc115_2110"
    INDEX 01 00:20:43
  TRACK 15 AUDIO
    TITLE "0:"
    INDEX 01 00:21:58
  TRACK 16 AUDIO
    TITLE "3:cjc115_2111"
    INDEX 01 00:21:68
  TRACK 17 AUDIO
    TITLE "0:"
    INDEX 01 00:23:08
  TRACK 18 AUDIO
    TITLE "4:cjc115_2112"
    INDEX 01 00:23:12
  TRACK 19 AUDIO
    TITLE "0:"
    INDEX 01 00:26:34
  TRACK 20 AUDIO
    TITLE "2:cjc115_2113"
    INDEX 01 00:27:39
  TRACK 21 AUDIO
    TITLE "0:"
    INDEX 01 00:28:70
  TRACK 22 AUDIO
    TITLE "3:cjc115_2114"
    INDEX 01 00:29:05
  TRACK 23 AUDIO
    TITLE "0:"
    INDEX 01 00:30:18
  TRACK 24 AUDIO
    TITLE "4:cjc115_2115"
    INDEX 01 00:30:24
  TRACK 25 AUDIO
    TITLE "0:"
    INDEX 01 00:35:15
  TRACK 26 AUDIO
    TITLE "2:cjc115_2116"
    INDEX 01 00:36:25
  TRACK 27 AUDIO
    TITLE "0:"
    INDEX 01 00:37:54
  TRACK 28 AUDIO
    TITLE "3:cjc115_2117"
    INDEX 01 00:37:63
  TRACK 29 AUDIO
    TITLE "0:"
    INDEX 01 00:39:47
  TRACK 30 AUDIO
    TITLE "4:cjc115_2118"
    INDEX 01 00:39:51
  TRACK 31 AUDIO
    TITLE "0:"
    INDEX 01 00:42:63
  TRACK 32 AUDIO
    TITLE "2:cjc115_2119"
    INDEX 01 00:43:70
  TRACK 33 AUDIO
    TITLE "0:"
    INDEX 01 00:45:04
  TRACK 34 AUDIO
    TITLE "3:cjc115_2120"
    INDEX 01 00:45:10
  TRACK 35 AUDIO
    TITLE "0:"
    INDEX 01 00:46:37
  TRACK 36 AUDIO
    TITLE "4:cjc115_2121"
    INDEX 01 00:46:45
  TRACK 37 AUDIO
    TITLE "0:"
    INDEX 01 00:50:17
  TRACK 38 AUDIO
    TITLE "2:cjc115_2122"
    INDEX 01 00:51:22
  TRACK 39 AUDIO
    TITLE "0:"
    INDEX 01 00:52:37
  TRACK 40 AUDIO
    TITLE "3:cjc115_2123"
    INDEX 01 00:52:45
  TRACK 41 AUDIO
    TITLE "0:"
    INDEX 01 00:54:48
  TRACK 42 AUDIO
    TITLE "4:cjc115_2124"
    INDEX 01 00:54:52
  TRACK 43 AUDIO
    TITLE "0:"
    INDEX 01 00:57:37
  TRACK 44 AUDIO
    TITLE "2:cjc115_2125"
    INDEX 01 00:58:40
  TRACK 45 AUDIO
    TITLE "0:"
    INDEX 01 01:00:00
  TRACK 46 AUDIO
    TITLE "3:cjc115_2126"
    INDEX 01 01:00:08
  TRACK 47 AUDIO
    TITLE "0:"
    INDEX 01 01:05:66
  TRACK 48 AUDIO
    TITLE "4:cjc115_2127"
    INDEX 01 01:06:04
  TRACK 49 AUDIO
    TITLE "0:"
    INDEX 01 01:09:52
  TRACK 50 AUDIO
    TITLE "2:cjc115_2128"
    INDEX 01 01:10:59
  TRACK 51 AUDIO
    TITLE "0:"
    INDEX 01 01:12:15
  TRACK 52 AUDIO
    TITLE "3:cjc115_2129"
    INDEX 01 01:12:23
  TRACK 53 AUDIO
    TITLE "0:"
    INDEX 01 01:14:35
  TRACK 54 AUDIO
    TITLE "4:cjc115_2130"
    INDEX 01 01:14:45
  TRACK 55 AUDIO
    TITLE "0:"
    INDEX 01 01:19:27
  TRACK 56 AUDIO
    TITLE "2:cjc115_2131"
    INDEX 01 01:20:36
  TRACK 57 AUDIO
    TITLE "0:"
    INDEX 01 01:21:61
  TRACK 58 AUDIO
    TITLE "3:cjc115_2132"
    INDEX 01 01:21:63
  TRACK 59 AUDIO
    TITLE "0:"
    INDEX 01 01:25:13
  TRACK 60 AUDIO
    TITLE "4:cjc115_2133"
    INDEX 01 01:25:23
  TRACK 61 AUDIO
    TITLE "0:"
    INDEX 01 01:29:37
  TRACK 62 AUDIO
    TITLE "2:cjc115_2134"
    INDEX 01 01:30:46
  TRACK 63 AUDIO
    TITLE "0:"
    INDEX 01 01:32:04
  TRACK 64 AUDIO
    TITLE "3:cjc115_2135"
    INDEX 01 01:32:15
  TRACK 65 AUDIO
    TITLE "0:"
    INDEX 01 01:34:03
  TRACK 66 AUDIO
    TITLE "4:cjc115_2136"
    INDEX 01 01:34:08
  TRACK 67 AUDIO
    TITLE "0:"
    INDEX 01 01:38:24
  TRACK 68 AUDIO
    TITLE "2:cjc115_2137"
    INDEX 01 01:39:31
  TRACK 69 AUDIO
    TITLE "0:"
    INDEX 01 01:40:58
  TRACK 70 AUDIO
    TITLE "3:cjc115_2138"
    INDEX 01 01:40:62
  TRACK 71 AUDIO
    TITLE "0:"
    INDEX 01 01:42:18
  TRACK 72 AUDIO
    TITLE "4:cjc115_2139"
    INDEX 01 01:42:24
  TRACK 73 AUDIO
    TITLE "0:"
    INDEX 01 01:45:42
